999
dxfrw 0.5.10
0
SECTION
2
HEADER
9
$ACADVER
1
AC1021
9
$HANDSEED
5
20000
9
$DWGCODEPAGE
3
ANSI_1252
9
$INSBASE
10
0
20
0
30
0
9
$EXTMIN
10
0
20
0
30
0
9
$EXTMAX
10
300
20
320
30
0
9
$LIMMIN
10
0
20
0
9
$LIMMAX
10
420
20
297
9
$ORTHOMODE
70
0
9
$LTSCALE
40
1
9
$TEXTSTYLE
7
STANDARD
9
$CLAYER
8
5mmHole
9
$DIMASZ
40
2.5
9
$DIMLFAC
40
1
9
$DIMSCALE
40
1
9
$DIMEXO
40
0.625
9
$DIMEXE
40
1.25
9
$DIMTXT
40
2.5
9
$DIMTSZ
40
0
9
$DIMAUNIT
70
0
9
$DIMADEC
70
0
9
$DIMLUNIT
70
2
9
$DIMSTYLE
2
Standard
9
$DIMGAP
40
0.625
9
$DIMTIH
70
0
9
$LUNITS
70
2
9
$LUPREC
70
4
9
$AUNITS
70
0
9
$AUPREC
70
2
9
$SPLINESEGS
70
8
9
$SNAPSTYLE
70
0
9
$PINSBASE
10
0
20
0
30
0
9
$PLIMMIN
10
0
20
0
9
$PLIMMAX
10
210
20
297
9
$INSUNITS
70
4
9
$PSVPSCALE
40
1
0
ENDSEC
0
SECTION
2
CLASSES
0
ENDSEC
0
SECTION
2
TABLES
0
TABLE
2
VPORT
5
8
330
0
100
AcDbSymbolTable
70
1
0
VPORT
5
31
330
2
100
AcDbSymbolTableRecord
100
AcDbViewportTableRecord
2
*ACTIVE
70
0
10
0
20
0
11
1
21
1
12
223.636627197
22
216.007232666
13
0
23
0
14
10
24
10
15
10
25
10
16
0
26
0
36
1
17
0
27
0
37
0
40
466.346740723
41
2.08588957055
42
50
43
0
44
0
50
0
51
0
71
0
72
100
73
1
74
3
75
0
76
1
77
0
78
0
281
0
65
1
110
0
120
0
130
0
111
1
121
0
131
0
112
0
122
1
132
0
79
0
146
0
348
10020
60
7
61
5
292
1
282
1
141
0
142
0
63
250
421
3358443
0
ENDTAB
0
TABLE
2
LTYPE
5
5
330
0
100
AcDbSymbolTable
70
4
0
LTYPE
5
14
330
5
100
AcDbSymbolTableRecord
100
AcDbLinetypeTableRecord
2
ByBlock
70
0
3

72
65
73
0
40
0
0
LTYPE
5
15
330
5
100
AcDbSymbolTableRecord
100
AcDbLinetypeTableRecord
2
ByLayer
70
0
3

72
65
73
0
40
0
0
LTYPE
5
16
330
5
100
AcDbSymbolTableRecord
100
AcDbLinetypeTableRecord
2
Continuous
70
0
3
Solid line
72
65
73
0
40
0
0
LTYPE
5
32
330
5
100
AcDbSymbolTableRecord
100
AcDbLinetypeTableRecord
2
DOT
70
0
3
Dot . . . . . . . . . . . . . . . . . . . . . .
72
65
73
2
40
6.35
49
0
74
0
49
-6.35
74
0
0
LTYPE
5
33
330
5
100
AcDbSymbolTableRecord
100
AcDbLinetypeTableRecord
2
DOT2
70
0
3
Dot (.5x) .....................................
72
65
73
2
40
3.175
49
0
74
0
49
-3.175
74
0
0
LTYPE
5
34
330
5
100
AcDbSymbolTableRecord
100
AcDbLinetypeTableRecord
2
DOTX2
70
0
3
Dot (2x) .  .  .  .  .  .  .  .  .  .  .  .  .
72
65
73
2
40
12.7
49
0
74
0
49
-12.7
74
0
0
LTYPE
5
35
330
5
100
AcDbSymbolTableRecord
100
AcDbLinetypeTableRecord
2
DASHED
70
0
3
Dot . . . . . . . . . . . . . . . . . . . . . .
72
65
73
2
40
19.05
49
12.7
74
0
49
-6.35
74
0
0
LTYPE
5
36
330
5
100
AcDbSymbolTableRecord
100
AcDbLinetypeTableRecord
2
DASHED2
70
0
3
Dashed (.5x) _ _ _ _ _ _ _ _ _ _ _ _ _ _ _ _ _
72
65
73
2
40
9.525
49
6.35
74
0
49
-3.175
74
0
0
LTYPE
5
37
330
5
100
AcDbSymbolTableRecord
100
AcDbLinetypeTableRecord
2
DASHEDX2
70
0
3
Dashed (2x) ____  ____  ____  ____  ____  ___
72
65
73
2
40
38.1
49
25.4
74
0
49
-12.7
74
0
0
LTYPE
5
38
330
5
100
AcDbSymbolTableRecord
100
AcDbLinetypeTableRecord
2
DASHDOT
70
0
3
Dash dot __ . __ . __ . __ . __ . __ . __ . __
72
65
73
4
40
25.4
49
12.7
74
0
49
-6.35
74
0
49
0
74
0
49
-6.35
74
0
0
LTYPE
5
39
330
5
100
AcDbSymbolTableRecord
100
AcDbLinetypeTableRecord
2
DASHDOT2
70
0
3
Dash dot (.5x) _._._._._._._._._._._._._._._.
72
65
73
4
40
12.7
49
6.35
74
0
49
-3.175
74
0
49
0
74
0
49
-3.175
74
0
0
LTYPE
5
3A
330
5
100
AcDbSymbolTableRecord
100
AcDbLinetypeTableRecord
2
DASHDOTX2
70
0
3
Dash dot (2x) ____  .  ____  .  ____  .  ___
72
65
73
4
40
50.8
49
25.4
74
0
49
-12.7
74
0
49
0
74
0
49
-12.7
74
0
0
LTYPE
5
3B
330
5
100
AcDbSymbolTableRecord
100
AcDbLinetypeTableRecord
2
DIVIDE
70
0
3
Divide ____ . . ____ . . ____ . . ____ . . ____
72
65
73
6
40
31.75
49
12.7
74
0
49
-6.35
74
0
49
0
74
0
49
-6.35
74
0
49
0
74
0
49
-6.35
74
0
0
LTYPE
5
3C
330
5
100
AcDbSymbolTableRecord
100
AcDbLinetypeTableRecord
2
DIVIDE2
70
0
3
Divide (.5x) __..__..__..__..__..__..__..__.._
72
65
73
6
40
15.875
49
6.35
74
0
49
-3.175
74
0
49
0
74
0
49
-3.175
74
0
49
0
74
0
49
-3.175
74
0
0
LTYPE
5
3D
330
5
100
AcDbSymbolTableRecord
100
AcDbLinetypeTableRecord
2
DIVIDEX2
70
0
3
Divide (2x) ________  .  .  ________  .  .  _
72
65
73
6
40
63.5
49
25.4
74
0
49
-12.7
74
0
49
0
74
0
49
-12.7
74
0
49
0
74
0
49
-12.7
74
0
0
LTYPE
5
3E
330
5
100
AcDbSymbolTableRecord
100
AcDbLinetypeTableRecord
2
BORDER
70
0
3
Border __ __ . __ __ . __ __ . __ __ . __ __ .
72
65
73
6
40
44.45
49
12.7
74
0
49
-6.35
74
0
49
12.7
74
0
49
-6.35
74
0
49
0
74
0
49
-6.35
74
0
0
LTYPE
5
3F
330
5
100
AcDbSymbolTableRecord
100
AcDbLinetypeTableRecord
2
BORDER2
70
0
3
Border (.5x) __.__.__.__.__.__.__.__.__.__.__.
72
65
73
6
40
22.225
49
6.35
74
0
49
-3.175
74
0
49
6.35
74
0
49
-3.175
74
0
49
0
74
0
49
-3.175
74
0
0
LTYPE
5
40
330
5
100
AcDbSymbolTableRecord
100
AcDbLinetypeTableRecord
2
BORDERX2
70
0
3
Border (2x) ____  ____  .  ____  ____  .  ___
72
65
73
6
40
88.9
49
25.4
74
0
49
-12.7
74
0
49
25.4
74
0
49
-12.7
74
0
49
0
74
0
49
-12.7
74
0
0
LTYPE
5
41
330
5
100
AcDbSymbolTableRecord
100
AcDbLinetypeTableRecord
2
CENTER
70
0
3
Center ____ _ ____ _ ____ _ ____ _ ____ _ ____
72
65
73
4
40
50.8
49
31.75
74
0
49
-6.35
74
0
49
6.35
74
0
49
-6.35
74
0
0
LTYPE
5
42
330
5
100
AcDbSymbolTableRecord
100
AcDbLinetypeTableRecord
2
CENTER2
70
0
3
Center (.5x) ___ _ ___ _ ___ _ ___ _ ___ _ ___
72
65
73
4
40
28.575
49
19.05
74
0
49
-3.175
74
0
49
3.175
74
0
49
-3.175
74
0
0
LTYPE
5
43
330
5
100
AcDbSymbolTableRecord
100
AcDbLinetypeTableRecord
2
CENTERX2
70
0
3
Center (2x) ________  __  ________  __  _____
72
65
73
4
40
101.6
49
63.5
74
0
49
-12.7
74
0
49
12.7
74
0
49
-12.7
74
0
0
ENDTAB
0
TABLE
2
LAYER
5
2
330
0
100
AcDbSymbolTable
70
1
0
LAYER
5
10
330
2
100
AcDbSymbolTableRecord
100
AcDbLayerTableRecord
2
0
70
0
62
7
6
CONTINUOUS
370
-3
390
F
0
LAYER
5
44
330
2
100
AcDbSymbolTableRecord
100
AcDbLayerTableRecord
2
Layer1
70
0
62
70
6
CONTINUOUS
370
-3
390
F
0
LAYER
5
45
330
2
100
AcDbSymbolTableRecord
100
AcDbLayerTableRecord
2
Holes
70
0
62
5
6
CONTINUOUS
370
-3
390
F
0
LAYER
5
46
330
2
100
AcDbSymbolTableRecord
100
AcDbLayerTableRecord
2
Polyline
70
0
62
6
6
CONTINUOUS
370
-3
390
F
0
LAYER
5
47
330
2
100
AcDbSymbolTableRecord
100
AcDbLayerTableRecord
2
OutCircle
70
0
62
132
6
CONTINUOUS
370
-3
390
F
0
LAYER
5
48
330
2
100
AcDbSymbolTableRecord
100
AcDbLayerTableRecord
2
1.5mmHole
70
0
62
22
6
CONTINUOUS
370
-3
390
F
0
LAYER
5
49
330
2
100
AcDbSymbolTableRecord
100
AcDbLayerTableRecord
2
3mmHole
70
0
62
2
6
CONTINUOUS
370
-3
390
F
0
LAYER
5
4A
330
2
100
AcDbSymbolTableRecord
100
AcDbLayerTableRecord
2
5mmHole
70
0
62
70
6
CONTINUOUS
370
-3
390
F
0
LAYER
5
4B
330
2
100
AcDbSymbolTableRecord
100
AcDbLayerTableRecord
2
5.5mmHoleNoCut
70
0
62
1
6
CONTINUOUS
370
-3
390
F
0
LAYER
5
4C
330
2
100
AcDbSymbolTableRecord
100
AcDbLayerTableRecord
2
6mmHole
70
0
62
17
6
CONTINUOUS
370
-3
390
F
0
LAYER
5
4D
330
2
100
AcDbSymbolTableRecord
100
AcDbLayerTableRecord
2
8mmHole
70
0
62
211
6
CONTINUOUS
370
-3
390
F
0
LAYER
5
4E
330
2
100
AcDbSymbolTableRecord
100
AcDbLayerTableRecord
2
InProfile
70
0
62
70
6
CONTINUOUS
370
-3
390
F
0
LAYER
5
4F
330
2
100
AcDbSymbolTableRecord
100
AcDbLayerTableRecord
2
outProfile
70
0
62
70
6
CONTINUOUS
370
-3
390
F
0
ENDTAB
0
TABLE
2
STYLE
5
3
330
0
100
AcDbSymbolTable
70
3
0
STYLE
5
50
330
2
100
AcDbSymbolTableRecord
100
AcDbTextStyleTableRecord
2
Standard
70
0
40
0
41
1
50
0
71
0
42
1
3
txt
4

0
ENDTAB
0
TABLE
2
VIEW
5
6
330
0
100
AcDbSymbolTable
70
0
0
ENDTAB
0
TABLE
2
UCS
5
7
330
0
100
AcDbSymbolTable
70
0
0
ENDTAB
0
TABLE
2
APPID
5
9
330
0
100
AcDbSymbolTable
70
1
0
APPID
5
12
330
9
100
AcDbSymbolTableRecord
100
AcDbRegAppTableRecord
2
ACAD
70
0
0
ENDTAB
0
TABLE
2
DIMSTYLE
5
A
330
0
100
AcDbSymbolTable
70
1
100
AcDbDimStyleTable
71
1
0
DIMSTYLE
105
51
330
A
100
AcDbSymbolTableRecord
100
AcDbDimStyleTableRecord
2
Standard
70
0
40
1
41
2.5
42
0.625
43
0.38
44
1.25
45
0
46
0
47
0
48
0
140
2.5
141
0.09
142
0
143
25.4
144
1
145
0
146
1
147
0.625
148
0
71
0
72
0
73
0
74
1
75
0
76
0
77
0
78
0
79
0
170
0
171
2
172
0
173
0
174
0
175
0
176
0
177
0
178
0
179
0
271
4
272
4
273
2
274
2
275
0
276
0
277
2
278
46
279
0
280
0
281
0
282
0
283
1
284
0
285
0
286
0
288
0
289
3
340
Standard
341

371
-2
372
-2
0
ENDTAB
0
TABLE
2
BLOCK_RECORD
5
1
330
0
100
AcDbSymbolTable
70
2
0
BLOCK_RECORD
5
1F
330
1
100
AcDbSymbolTableRecord
100
AcDbBlockTableRecord
2
*Model_Space
70
0
280
1
281
0
0
BLOCK_RECORD
5
1E
330
1
100
AcDbSymbolTableRecord
100
AcDbBlockTableRecord
2
*Paper_Space
70
0
280
1
281
0
0
ENDTAB
0
ENDSEC
0
SECTION
2
BLOCKS
0
BLOCK
5
20
330
1F
100
AcDbEntity
8
0
100
AcDbBlockBegin
2
*Model_Space
70
0
10
0
20
0
30
0
3
*Model_Space
1

0
ENDBLK
5
21
330
1F
100
AcDbEntity
8
0
100
AcDbBlockEnd
0
BLOCK
5
1C
330
1B
100
AcDbEntity
8
0
100
AcDbBlockBegin
2
*Paper_Space
70
0
10
0
20
0
30
0
3
*Paper_Space
1

0
ENDBLK
5
1D
330
1F
100
AcDbEntity
8
0
100
AcDbBlockEnd
0
ENDSEC
0
SECTION
2
ENTITIES
0
CIRCLE
5
52
100
AcDbEntity
8
OutCircle
6
ByLayer
62
256
370
-1
100
AcDbCircle
10
240
20
248
40
45
0
CIRCLE
5
53
100
AcDbEntity
8
OutCircle
6
ByLayer
62
256
370
-1
100
AcDbCircle
10
56.4999997395
20
61.5000000628
40
47.5
0
CIRCLE
5
54
100
AcDbEntity
8
OutCircle
6
ByLayer
62
256
370
-1
100
AcDbCircle
10
170.695793225
20
96.663009584
40
10
0
CIRCLE
5
55
100
AcDbEntity
8
OutCircle
6
ByLayer
62
256
370
-1
100
AcDbCircle
10
171
20
47
40
10
0
CIRCLE
5
56
100
AcDbEntity
8
1.5mmHole
6
ByLayer
62
256
370
-1
100
AcDbCircle
10
22.8789748379
20
170.515052419
40
0.8
0
CIRCLE
5
57
100
AcDbEntity
8
1.5mmHole
6
ByLayer
62
256
370
-1
100
AcDbCircle
10
15.6
20
163.116042154
40
0.8
0
CIRCLE
5
58
100
AcDbEntity
8
1.5mmHole
6
ByLayer
62
256
370
-1
100
AcDbCircle
10
23
20
155.716042154
40
0.8
0
CIRCLE
5
59
100
AcDbEntity
8
1.5mmHole
6
ByLayer
62
256
370
-1
100
AcDbCircle
10
30.4
20
163.116042154
40
0.8
0
CIRCLE
5
5A
100
AcDbEntity
8
1.5mmHole
6
ByLayer
62
256
370
-1
100
AcDbCircle
10
136.6
20
163.116042154
40
0.8
0
CIRCLE
5
5B
100
AcDbEntity
8
1.5mmHole
6
ByLayer
62
256
370
-1
100
AcDbCircle
10
144
20
170.516042154
40
0.8
0
CIRCLE
5
5C
100
AcDbEntity
8
1.5mmHole
6
ByLayer
62
256
370
-1
100
AcDbCircle
10
151.4
20
163.116042154
40
0.8
0
CIRCLE
5
5D
100
AcDbEntity
8
1.5mmHole
6
ByLayer
62
256
370
-1
100
AcDbCircle
10
144.121025162
20
155.717031888
40
0.8
0
CIRCLE
5
5E
100
AcDbEntity
8
1.5mmHole
6
ByLayer
62
256
370
-1
100
AcDbCircle
10
77.5
20
127.75
40
0.8
0
CIRCLE
5
5F
100
AcDbEntity
8
1.5mmHole
6
ByLayer
62
256
370
-1
100
AcDbCircle
10
77.5
20
124.25
40
0.8
0
CIRCLE
5
60
100
AcDbEntity
8
1.5mmHole
6
ByLayer
62
256
370
-1
100
AcDbCircle
10
91
20
124.25
40
0.75
0
CIRCLE
5
61
100
AcDbEntity
8
1.5mmHole
6
ByLayer
62
256
370
-1
100
AcDbCircle
10
91
20
127.75
40
0.75
0
CIRCLE
5
62
100
AcDbEntity
8
1.5mmHole
6
ByLayer
62
256
370
-1
100
AcDbCircle
10
138.478974838
20
114.399010266
40
0.8
0
CIRCLE
5
63
100
AcDbEntity
8
1.5mmHole
6
ByLayer
62
256
370
-1
100
AcDbCircle
10
145.878974838
20
121.799010266
40
0.8
0
CIRCLE
5
64
100
AcDbEntity
8
1.5mmHole
6
ByLayer
62
256
370
-1
100
AcDbCircle
10
153.278974838
20
114.399010266
40
0.8
0
CIRCLE
5
65
100
AcDbEntity
8
1.5mmHole
6
ByLayer
62
256
370
-1
100
AcDbCircle
10
146
20
107
40
0.8
0
CIRCLE
5
66
100
AcDbEntity
8
1.5mmHole
6
ByLayer
62
256
370
-1
100
AcDbCircle
10
148.908366352
20
69.8274342475
40
0.75
0
CIRCLE
5
67
100
AcDbEntity
8
1.5mmHole
6
ByLayer
62
256
370
-1
100
AcDbCircle
10
152.408366352
20
69.8274342475
40
0.75
0
CIRCLE
5
68
100
AcDbEntity
8
1.5mmHole
6
ByLayer
62
256
370
-1
100
AcDbCircle
10
152.408366352
20
56.3274342475
40
0.8
0
CIRCLE
5
69
100
AcDbEntity
8
1.5mmHole
6
ByLayer
62
256
370
-1
100
AcDbCircle
10
148.908366352
20
56.3274342475
40
0.8
0
CIRCLE
5
6A
100
AcDbEntity
8
1.5mmHole
6
ByLayer
62
256
370
-1
100
AcDbCircle
10
125.566697543
20
27.6519136108
40
0.9
0
CIRCLE
5
6B
100
AcDbEntity
8
1.5mmHole
6
ByLayer
62
256
370
-1
100
AcDbCircle
10
154.066697543
20
27.6519136108
40
0.9
0
CIRCLE
5
6C
100
AcDbEntity
8
1.5mmHole
6
ByLayer
62
256
370
-1
100
AcDbCircle
10
247.4
20
248
40
0.8
0
CIRCLE
5
6D
100
AcDbEntity
8
1.5mmHole
6
ByLayer
62
256
370
-1
100
AcDbCircle
10
240.121025162
20
240.600989734
40
0.8
0
CIRCLE
5
6E
100
AcDbEntity
8
1.5mmHole
6
ByLayer
62
256
370
-1
100
AcDbCircle
10
232.6
20
248
40
0.8
0
CIRCLE
5
6F
100
AcDbEntity
8
1.5mmHole
6
ByLayer
62
256
370
-1
100
AcDbCircle
10
240
20
255.4
40
0.8
0
CIRCLE
5
70
100
AcDbEntity
8
3mmHole
6
ByLayer
62
256
370
-1
100
AcDbCircle
10
22.1167774786
20
36.5191268403
40
1.5
0
CIRCLE
5
71
100
AcDbEntity
8
3mmHole
6
ByLayer
62
256
370
-1
100
AcDbCircle
10
41.9999997395
20
56.1250000628
40
1.5
0
CIRCLE
5
72
100
AcDbEntity
8
3mmHole
6
ByLayer
62
256
370
-1
100
AcDbCircle
10
41.9999997395
20
66.6250000628
40
1.5
0
CIRCLE
5
73
100
AcDbEntity
8
3mmHole
6
ByLayer
62
256
370
-1
100
AcDbCircle
10
89.9999997395
20
66.6250000628
40
1.5
0
CIRCLE
5
74
100
AcDbEntity
8
3mmHole
6
ByLayer
62
256
370
-1
100
AcDbCircle
10
119.086937508
20
63.4198618559
40
1.5
0
CIRCLE
5
75
100
AcDbEntity
8
3mmHole
6
ByLayer
62
256
370
-1
100
AcDbCircle
10
98.9999997395
20
61.5000000628
40
1.5
0
CIRCLE
5
76
100
AcDbEntity
8
3mmHole
6
ByLayer
62
256
370
-1
100
AcDbCircle
10
89.9999997395
20
56.1250000628
40
1.5
0
CIRCLE
5
77
100
AcDbEntity
8
3mmHole
6
ByLayer
62
256
370
-1
100
AcDbCircle
10
69.6332220005
20
21.0800981202
40
1.5
0
CIRCLE
5
78
100
AcDbEntity
8
3mmHole
6
ByLayer
62
256
370
-1
100
AcDbCircle
10
121.366697543
20
27.6519136108
40
1.5
0
CIRCLE
5
79
100
AcDbEntity
8
3mmHole
6
ByLayer
62
256
370
-1
100
AcDbCircle
10
127.366697543
20
44.6219136108
40
1.5
0
CIRCLE
5
7A
100
AcDbEntity
8
3mmHole
6
ByLayer
62
256
370
-1
100
AcDbCircle
10
138.566697543
20
44.6219136108
40
1.5
0
CIRCLE
5
7B
100
AcDbEntity
8
3mmHole
6
ByLayer
62
256
370
-1
100
AcDbCircle
10
154.47632893
20
45.9993079671
40
1.5
0
CIRCLE
5
7C
100
AcDbEntity
8
3mmHole
6
ByLayer
62
256
370
-1
100
AcDbCircle
10
163.3708983
20
26.9828829808
40
1.5
0
CIRCLE
5
7D
100
AcDbEntity
8
3mmHole
6
ByLayer
62
256
370
-1
100
AcDbCircle
10
163.3708983
20
15.9828829808
40
1.5
0
CIRCLE
5
7E
100
AcDbEntity
8
3mmHole
6
ByLayer
62
256
370
-1
100
AcDbCircle
10
177.892728403
20
68.5
40
1.5
0
CIRCLE
5
7F
100
AcDbEntity
8
3mmHole
6
ByLayer
62
256
370
-1
100
AcDbCircle
10
194.509506142
20
43.5191267776
40
1.5
0
CIRCLE
5
80
100
AcDbEntity
8
3mmHole
6
ByLayer
62
256
370
-1
100
AcDbCircle
10
242.025950664
20
28.0800980575
40
1.5
0
CIRCLE
5
81
100
AcDbEntity
8
3mmHole
6
ByLayer
62
256
370
-1
100
AcDbCircle
10
228.892728403
20
17.5
40
1.5
0
CIRCLE
5
82
100
AcDbEntity
8
3mmHole
6
ByLayer
62
256
370
-1
100
AcDbCircle
10
192.3708983
20
26.9828829808
40
1.5
0
CIRCLE
5
83
100
AcDbEntity
8
3mmHole
6
ByLayer
62
256
370
-1
100
AcDbCircle
10
192.3708983
20
15.9828829808
40
1.5
0
CIRCLE
5
84
100
AcDbEntity
8
3mmHole
6
ByLayer
62
256
370
-1
100
AcDbCircle
10
271.392728403
20
68.5
40
1.5
0
CIRCLE
5
85
100
AcDbEntity
8
3mmHole
6
ByLayer
62
256
370
-1
100
AcDbCircle
10
279.892728403
20
68.5
40
1.5
0
CIRCLE
5
86
100
AcDbEntity
8
3mmHole
6
ByLayer
62
256
370
-1
100
AcDbCircle
10
228.892728403
20
119.5
40
1.5
0
CIRCLE
5
87
100
AcDbEntity
8
3mmHole
6
ByLayer
62
256
370
-1
100
AcDbCircle
10
213.022244756
20
135.517665542
40
1.5
0
CIRCLE
5
88
100
AcDbEntity
8
3mmHole
6
ByLayer
62
256
370
-1
100
AcDbCircle
10
228.522244756
20
139.017665542
40
1.5
0
CIRCLE
5
89
100
AcDbEntity
8
3mmHole
6
ByLayer
62
256
370
-1
100
AcDbCircle
10
218.022244756
20
139.017665542
40
1.5
0
CIRCLE
5
8A
100
AcDbEntity
8
3mmHole
6
ByLayer
62
256
370
-1
100
AcDbCircle
10
228.522244756
20
187.017665542
40
1.5
0
CIRCLE
5
8B
100
AcDbEntity
8
3mmHole
6
ByLayer
62
256
370
-1
100
AcDbCircle
10
218.022244756
20
187.017665542
40
1.5
0
CIRCLE
5
8C
100
AcDbEntity
8
3mmHole
6
ByLayer
62
256
370
-1
100
AcDbCircle
10
186
20
148.5
40
1.5
0
CIRCLE
5
8D
100
AcDbEntity
8
3mmHole
6
ByLayer
62
256
370
-1
100
AcDbCircle
10
175.5
20
148.5
40
1.5
0
CIRCLE
5
8E
100
AcDbEntity
8
3mmHole
6
ByLayer
62
256
370
-1
100
AcDbCircle
10
186
20
196.5
40
1.5
0
CIRCLE
5
8F
100
AcDbEntity
8
3mmHole
6
ByLayer
62
256
370
-1
100
AcDbCircle
10
175.5
20
196.5
40
1.5
0
CIRCLE
5
90
100
AcDbEntity
8
3mmHole
6
ByLayer
62
256
370
-1
100
AcDbCircle
10
170.5
20
145
40
1.5
0
CIRCLE
5
91
100
AcDbEntity
8
3mmHole
6
ByLayer
62
256
370
-1
100
AcDbCircle
10
255
20
165
40
1.5
0
CIRCLE
5
92
100
AcDbEntity
8
3mmHole
6
ByLayer
62
256
370
-1
100
AcDbCircle
10
249
20
148.03
40
1.5
0
CIRCLE
5
93
100
AcDbEntity
8
3mmHole
6
ByLayer
62
256
370
-1
100
AcDbCircle
10
274.030094691
20
146.191112244
40
1.5
0
CIRCLE
5
94
100
AcDbEntity
8
3mmHole
6
ByLayer
62
256
370
-1
100
AcDbCircle
10
280.030094691
20
163.161112244
40
1.5
0
CIRCLE
5
95
100
AcDbEntity
8
3mmHole
6
ByLayer
62
256
370
-1
100
AcDbCircle
10
267
20
164
40
1.5
0
CIRCLE
5
96
100
AcDbEntity
8
3mmHole
6
ByLayer
62
256
370
-1
100
AcDbCircle
10
261
20
147.03
40
1.5
0
CIRCLE
5
97
100
AcDbEntity
8
3mmHole
6
ByLayer
62
256
370
-1
100
AcDbCircle
10
96
20
201
40
1.5
0
CIRCLE
5
98
100
AcDbEntity
8
3mmHole
6
ByLayer
62
256
370
-1
100
AcDbCircle
10
96
20
187
40
1.5
0
CIRCLE
5
99
100
AcDbEntity
8
3mmHole
6
ByLayer
62
256
370
-1
100
AcDbCircle
10
71
20
201
40
1.5
0
CIRCLE
5
9A
100
AcDbEntity
8
3mmHole
6
ByLayer
62
256
370
-1
100
AcDbCircle
10
71
20
187
40
1.5
0
CIRCLE
5
9B
100
AcDbEntity
8
3mmHole
6
ByLayer
62
256
370
-1
100
AcDbCircle
10
96
20
170.116042154
40
1.5
0
CIRCLE
5
9C
100
AcDbEntity
8
3mmHole
6
ByLayer
62
256
370
-1
100
AcDbCircle
10
96
20
156.116042154
40
1.5
0
CIRCLE
5
9D
100
AcDbEntity
8
3mmHole
6
ByLayer
62
256
370
-1
100
AcDbCircle
10
71
20
170.116042154
40
1.5
0
CIRCLE
5
9E
100
AcDbEntity
8
3mmHole
6
ByLayer
62
256
370
-1
100
AcDbCircle
10
71
20
156.116042154
40
1.5
0
CIRCLE
5
9F
100
AcDbEntity
8
3mmHole
6
ByLayer
62
256
370
-1
100
AcDbCircle
10
149.178974838
20
140.397595099
40
1.5
0
CIRCLE
5
A0
100
AcDbEntity
8
3mmHole
6
ByLayer
62
256
370
-1
100
AcDbCircle
10
137.878974838
20
140.397595099
40
1.5
0
CIRCLE
5
A1
100
AcDbEntity
8
3mmHole
6
ByLayer
62
256
370
-1
100
AcDbCircle
10
167.865735937
20
118.534621326
40
1.5
0
CIRCLE
5
A2
100
AcDbEntity
8
3mmHole
6
ByLayer
62
256
370
-1
100
AcDbCircle
10
167.865735937
20
128.534621326
40
1.5
0
CIRCLE
5
A3
100
AcDbEntity
8
3mmHole
6
ByLayer
62
256
370
-1
100
AcDbCircle
10
196.365735937
20
118.534621326
40
1.5
0
CIRCLE
5
A4
100
AcDbEntity
8
3mmHole
6
ByLayer
62
256
370
-1
100
AcDbCircle
10
196.365735937
20
128.534621326
40
1.5
0
CIRCLE
5
A5
100
AcDbEntity
8
3mmHole
6
ByLayer
62
256
370
-1
100
AcDbCircle
10
28.3657359375
20
123.834621326
40
1.5
0
CIRCLE
5
A6
100
AcDbEntity
8
3mmHole
6
ByLayer
62
256
370
-1
100
AcDbCircle
10
28.3657359375
20
133.834621326
40
1.5
0
CIRCLE
5
A7
100
AcDbEntity
8
3mmHole
6
ByLayer
62
256
370
-1
100
AcDbCircle
10
56.8657359375
20
123.834621326
40
1.5
0
CIRCLE
5
A8
100
AcDbEntity
8
3mmHole
6
ByLayer
62
256
370
-1
100
AcDbCircle
10
56.8657359375
20
133.834621326
40
1.5
0
CIRCLE
5
A9
100
AcDbEntity
8
3mmHole
6
ByLayer
62
256
370
-1
100
AcDbCircle
10
22.1167774786
20
86.4808732852
40
1.5
0
CIRCLE
5
AA
100
AcDbEntity
8
3mmHole
6
ByLayer
62
256
370
-1
100
AcDbCircle
10
69.6332220005
20
101.919902005
40
1.5
0
CIRCLE
5
AB
100
AcDbEntity
8
3mmHole
6
ByLayer
62
256
370
-1
100
AcDbCircle
10
137.425071718
20
79.714085106
40
1.5
0
CIRCLE
5
AC
100
AcDbEntity
8
3mmHole
6
ByLayer
62
256
370
-1
100
AcDbCircle
10
119.086937508
20
92.4198618559
40
1.5
0
CIRCLE
5
AD
100
AcDbEntity
8
3mmHole
6
ByLayer
62
256
370
-1
100
AcDbCircle
10
137.425071718
20
90.914085106
40
1.5
0
CIRCLE
5
AE
100
AcDbEntity
8
3mmHole
6
ByLayer
62
256
370
-1
100
AcDbCircle
10
150.658366352
20
91.8274342475
40
1.5
0
CIRCLE
5
AF
100
AcDbEntity
8
3mmHole
6
ByLayer
62
256
370
-1
100
AcDbCircle
10
107.578974838
20
107.499010266
40
1.5
0
CIRCLE
5
B0
100
AcDbEntity
8
3mmHole
6
ByLayer
62
256
370
-1
100
AcDbCircle
10
118.878974838
20
107.499010266
40
1.5
0
CIRCLE
5
B1
100
AcDbEntity
8
3mmHole
6
ByLayer
62
256
370
-1
100
AcDbCircle
10
194.509506142
20
93.4808732224
40
1.5
0
CIRCLE
5
B2
100
AcDbEntity
8
3mmHole
6
ByLayer
62
256
370
-1
100
AcDbCircle
10
242.025950664
20
108.919901943
40
1.5
0
CIRCLE
5
B3
100
AcDbEntity
8
3mmHole
6
ByLayer
62
256
370
-1
100
AcDbCircle
10
266.328403582
20
111.453655063
40
1.5
0
CIRCLE
5
B4
100
AcDbEntity
8
3mmHole
6
ByLayer
62
256
370
-1
100
AcDbCircle
10
278.024854684
20
97.7725026399
40
1.5
0
CIRCLE
5
B5
100
AcDbEntity
8
5mmHole
6
ByLayer
62
256
370
-1
100
AcDbCircle
10
144
20
194
40
2.5
0
CIRCLE
5
B6
100
AcDbEntity
8
5mmHole
6
ByLayer
62
256
370
-1
100
AcDbCircle
10
170.695793225
20
96.663009584
40
2.5
0
CIRCLE
5
B7
100
AcDbEntity
8
5mmHole
6
ByLayer
62
256
370
-1
100
AcDbCircle
10
171
20
47
40
2.5
0
CIRCLE
5
B8
100
AcDbEntity
8
5mmHole
6
ByLayer
62
256
370
-1
100
AcDbCircle
10
110.878974838
20
133.497595099
40
2.5
0
CIRCLE
5
B9
100
AcDbEntity
8
5.5mmHoleNoCut
6
ByLayer
62
256
370
-1
100
AcDbCircle
10
22.1167774786
20
36.5191268403
40
2.75
0
CIRCLE
5
BA
100
AcDbEntity
8
5.5mmHoleNoCut
6
ByLayer
62
256
370
-1
100
AcDbCircle
10
69.6332220005
20
21.0800981202
40
2.75
0
CIRCLE
5
BB
100
AcDbEntity
8
5.5mmHoleNoCut
6
ByLayer
62
256
370
-1
100
AcDbCircle
10
22.1167774786
20
86.4808732852
40
2.75
0
CIRCLE
5
BC
100
AcDbEntity
8
5.5mmHoleNoCut
6
ByLayer
62
256
370
-1
100
AcDbCircle
10
69.6332220005
20
101.919902005
40
2.75
0
CIRCLE
5
BD
100
AcDbEntity
8
5.5mmHoleNoCut
6
ByLayer
62
256
370
-1
100
AcDbCircle
10
98.9999997395
20
61.5000000628
40
2.75
0
CIRCLE
5
BE
100
AcDbEntity
8
5.5mmHoleNoCut
6
ByLayer
62
256
370
-1
100
AcDbCircle
10
41.9999997395
20
56.1250000628
40
2.75
0
CIRCLE
5
BF
100
AcDbEntity
8
5.5mmHoleNoCut
6
ByLayer
62
256
370
-1
100
AcDbCircle
10
41.9999997395
20
66.6250000628
40
2.75
0
CIRCLE
5
C0
100
AcDbEntity
8
5.5mmHoleNoCut
6
ByLayer
62
256
370
-1
100
AcDbCircle
10
89.9999997395
20
66.6250000628
40
2.75
0
CIRCLE
5
C1
100
AcDbEntity
8
5.5mmHoleNoCut
6
ByLayer
62
256
370
-1
100
AcDbCircle
10
89.9999997395
20
56.1250000628
40
2.75
0
CIRCLE
5
C2
100
AcDbEntity
8
5.5mmHoleNoCut
6
ByLayer
62
256
370
-1
100
AcDbCircle
10
194.509506142
20
43.5191267776
40
2.75
0
CIRCLE
5
C3
100
AcDbEntity
8
5.5mmHoleNoCut
6
ByLayer
62
256
370
-1
100
AcDbCircle
10
194.509506142
20
93.4808732224
40
2.75
0
CIRCLE
5
C4
100
AcDbEntity
8
5.5mmHoleNoCut
6
ByLayer
62
256
370
-1
100
AcDbCircle
10
242.025950664
20
108.919901943
40
2.75
0
CIRCLE
5
C5
100
AcDbEntity
8
5.5mmHoleNoCut
6
ByLayer
62
256
370
-1
100
AcDbCircle
10
271.392728403
20
68.5
40
2.75
0
CIRCLE
5
C6
100
AcDbEntity
8
5.5mmHoleNoCut
6
ByLayer
62
256
370
-1
100
AcDbCircle
10
242.025950664
20
28.0800980575
40
2.75
0
CIRCLE
5
C7
100
AcDbEntity
8
8mmHole
6
ByLayer
62
256
370
-1
100
AcDbCircle
10
23
20
163.116042154
40
4
0
CIRCLE
5
C8
100
AcDbEntity
8
8mmHole
6
ByLayer
62
256
370
-1
100
AcDbCircle
10
23
20
194
40
4
0
CIRCLE
5
C9
100
AcDbEntity
8
8mmHole
6
ByLayer
62
256
370
-1
100
AcDbCircle
10
144
20
163.116042154
40
4
0
LWPOLYLINE
5
CA
100
AcDbEntity
8
InProfile
6
ByLayer
62
256
370
-1
100
AcDbPolyline
90
4
70
1
43
0
10
212.5
20
263
10
216.5
20
263
10
216.5
20
277
10
212.5
20
277
0
LWPOLYLINE
5
CB
100
AcDbEntity
8
InProfile
6
ByLayer
62
256
370
-1
100
AcDbPolyline
90
4
70
1
43
0
10
212.5
20
255
10
216.5
20
255
10
216.5
20
241
10
212.5
20
241
0
LWPOLYLINE
5
CC
100
AcDbEntity
8
InProfile
6
ByLayer
62
256
370
-1
100
AcDbPolyline
90
4
70
1
43
0
10
212.5
20
233
10
216.5
20
233
10
216.5
20
219
10
212.5
20
219
0
CIRCLE
5
CD
100
AcDbEntity
8
InProfile
6
ByLayer
62
256
370
-1
100
AcDbCircle
10
240
20
248
40
4
0
LWPOLYLINE
5
CE
100
AcDbEntity
8
InProfile
6
ByLayer
62
256
370
-1
100
AcDbPolyline
90
4
70
1
43
0
10
263.5
20
277
10
263.5
20
263
10
267.5
20
263
10
267.5
20
277
0
LWPOLYLINE
5
CF
100
AcDbEntity
8
InProfile
6
ByLayer
62
256
370
-1
100
AcDbPolyline
90
4
70
1
43
0
10
263.5
20
255
10
267.5
20
255
10
267.5
20
241
10
263.5
20
241
0
LWPOLYLINE
5
D0
100
AcDbEntity
8
InProfile
6
ByLayer
62
256
370
-1
100
AcDbPolyline
90
4
70
1
43
0
10
267.5
20
219
10
263.5
20
219
10
263.5
20
233
10
267.5
20
233
0
LWPOLYLINE
5
D1
100
AcDbEntity
8
InProfile
6
ByLayer
62
256
370
-1
100
AcDbPolyline
90
12
70
1
43
0
10
213.022244756
20
183.517665542
10
222.022244756
20
183.517665542
10
222.022244756
20
187.017665542
10
224.522244756
20
187.017665542
10
224.522244756
20
183.517665542
10
233.522244756
20
183.517665542
10
233.522244756
20
142.517665542
10
224.522244756
20
142.517665542
10
224.522244756
20
139.017665542
10
222.022244756
20
139.017665542
10
222.022244756
20
142.517665542
10
213.022244756
20
142.517665542
0
LWPOLYLINE
5
D2
100
AcDbEntity
8
InProfile
6
ByLayer
62
256
370
-1
100
AcDbPolyline
90
12
70
1
43
0
10
170.5
20
193
10
179.5
20
193
10
179.5
20
196.5
10
182
20
196.5
10
182
20
193
10
191
20
193
10
191
20
152
10
182
20
152
10
182
20
148.5
10
179.5
20
148.5
10
179.5
20
152
10
170.5
20
152
0
LWPOLYLINE
5
D3
100
AcDbEntity
8
InProfile
6
ByLayer
62
256
370
-1
100
AcDbPolyline
90
4
70
1
43
0
10
149.878974838
20
133.797595099
10
140.878974838
20
133.797595099
10
140.878974838
20
137.797595099
10
149.878974838
20
137.797595099
0
LWPOLYLINE
5
D4
100
AcDbEntity
8
InProfile
6
ByLayer
62
256
370
-1
100
AcDbPolyline
90
4
70
1
43
0
10
82
20
139.75
10
86
20
139.75
10
86
20
132
10
82
20
132
0
CIRCLE
5
D5
100
AcDbEntity
8
InProfile
6
ByLayer
62
256
370
-1
100
AcDbCircle
10
84
20
126
40
3
0
LWPOLYLINE
5
D6
100
AcDbEntity
8
InProfile
6
ByLayer
62
256
370
-1
100
AcDbPolyline
90
4
70
1
43
0
10
82
20
120
10
86
20
120
10
86
20
112.25
10
82
20
112.25
0
LWPOLYLINE
5
D7
100
AcDbEntity
8
InProfile
6
ByLayer
62
256
370
-1
100
AcDbPolyline
90
4
70
1
43
0
10
106.878974838
20
114.099010266
10
115.878974838
20
114.099010266
10
115.878974838
20
110.099010266
10
106.878974838
20
110.099010266
0
CIRCLE
5
D8
100
AcDbEntity
8
InProfile
6
ByLayer
62
256
370
-1
100
AcDbCircle
10
145.878974838
20
114.399010266
40
4
0
CIRCLE
5
D9
100
AcDbEntity
8
InProfile
6
ByLayer
62
256
370
-1
100
AcDbCircle
10
150.658366352
20
62.8274342475
40
3
0
LWPOLYLINE
5
DA
100
AcDbEntity
8
InProfile
6
ByLayer
62
256
370
-1
100
AcDbPolyline
90
4
70
1
43
0
10
151.166697543
20
34.1019136108
10
128.466697543
20
34.1019136108
10
128.466697543
20
21.2019136108
10
151.166697543
20
21.2019136108
0
CIRCLE
5
DB
100
AcDbEntity
8
InProfile
6
ByLayer
62
256
370
-1
100
AcDbCircle
10
56.4999997395
20
61.5000000628
40
11.5
0
CIRCLE
5
DC
100
AcDbEntity
8
InProfile
6
ByLayer
62
256
370
-1
100
AcDbCircle
10
154.47632893
20
45.9993079671
40
3
0
LWPOLYLINE
5
DD
100
AcDbEntity
8
InProfile
6
ByLayer
62
256
370
-1
100
AcDbPolyline
90
4
70
1
43
0
10
25.2703315387
20
201.566677274
42
0.146789170909
10
20.7296684613
20
201.566677274
42
0.757896900739
10
21
20
200.603861729
42
-0.148104995307
10
25
20
200.603861729
42
0.757896900739
0
LWPOLYLINE
5
DE
100
AcDbEntity
8
InProfile
6
ByLayer
62
256
370
-1
100
AcDbPolyline
90
4
70
1
43
0
10
15.4333227259
20
196.270331539
42
0.146789170909
10
15.4333227259
20
191.729668461
42
0.757896900739
10
16.3961382711
20
192
42
-0.148104995307
10
16.3961382711
20
196
42
0.757896900739
0
LWPOLYLINE
5
DF
100
AcDbEntity
8
InProfile
6
ByLayer
62
256
370
-1
100
AcDbPolyline
90
4
70
1
43
0
10
30.5666772741
20
191.729668461
42
0.146789170909
10
30.5666772741
20
196.270331539
42
0.757896900739
10
29.6038617289
20
196
42
-0.148104995307
10
29.6038617289
20
192
42
0.757896900739
0
LWPOLYLINE
5
E0
100
AcDbEntity
8
InProfile
6
ByLayer
62
256
370
-1
100
AcDbPolyline
90
4
70
1
43
0
10
20.7296684613
20
186.433322726
42
0.146789170909
10
25.2703315387
20
186.433322726
42
0.757896900739
10
25
20
187.396138271
42
-0.148104995307
10
21
20
187.396138271
42
0.757896900739
0
LWPOLYLINE
5
E1
100
AcDbEntity
8
outProfile
6
ByLayer
62
256
370
-1
100
AcDbPolyline
90
18
70
1
43
0
10
197
20
187.5
10
201
20
187.5
10
201
20
201.5
10
197
20
201.5
10
197
20
206.5
10
174
20
206.5
42
0.414213562373
10
164
20
196.5
10
164
20
148.5
42
0.414213562373
10
174
20
138.5
10
197
20
138.5
10
197
20
143.5
10
201
20
143.5
10
201
20
157.5
10
197
20
157.5
10
197
20
165.5
10
201
20
165.5
10
201
20
179.5
10
197
20
179.5
0
LWPOLYLINE
5
E2
100
AcDbEntity
8
outProfile
6
ByLayer
62
256
370
-1
100
AcDbPolyline
90
14
70
1
43
0
10
13.8657359375
20
129.534621326
10
9.86573593748
20
129.534621326
10
9.86573593748
20
120.534621326
10
13.8657359375
20
120.534621326
10
13.8657359375
20
115.534621326
10
61.8657359375
20
115.534621326
10
61.8657359375
20
120.534621326
10
65.8657359375
20
120.534621326
10
65.8657359375
20
129.534621326
10
61.8657359375
20
129.534621326
10
61.8657359375
20
134.534621326
42
0.414213562373
10
53.8657359375
20
142.534621326
10
21.8657359375
20
142.534621326
42
0.414213562373
10
13.8657359375
20
134.534621326
0
LWPOLYLINE
5
E3
100
AcDbEntity
8
outProfile
6
ByLayer
62
256
370
-1
100
AcDbPolyline
90
8
70
1
43
0
10
94
20
137.75
10
94
20
114.25
10
86
20
106.25
10
82
20
106.25
10
74
20
114.25
10
74
20
137.75
10
82
20
145.75
10
86
20
145.75
0
LWPOLYLINE
5
E4
100
AcDbEntity
8
outProfile
6
ByLayer
62
256
370
-1
100
AcDbPolyline
90
8
70
1
43
0
10
101.878974838
20
105.399010266
10
101.878974838
20
115.399010266
42
-0.414213562373
10
103.878974838
20
117.399010266
10
120.280090087
20
117.399010266
42
0.0973816798454
10
127.852444187
20
118.887947266
10
141.106796579
20
124.309929227
42
-1.2539251117
10
145.878974838
20
103.399010266
10
103.878974838
20
103.399010266
42
-0.414213562373
0
LWPOLYLINE
5
E5
100
AcDbEntity
8
outProfile
6
ByLayer
62
256
370
-1
100
AcDbPolyline
90
8
70
1
43
0
10
154.878974838
20
142.497595099
10
154.878974838
20
132.497595099
42
-0.414213562373
10
152.878974838
20
130.497595099
10
136.477859589
20
130.497595099
42
0.0973816798454
10
128.905505489
20
129.008658099
10
115.651153096
20
123.586676137
42
-1.2539251117
10
110.878974838
20
144.497595099
10
152.878974838
20
144.497595099
42
-0.414213562373
0
LWPOLYLINE
5
E6
100
AcDbEntity
8
outProfile
6
ByLayer
62
256
370
-1
100
AcDbPolyline
90
8
70
1
43
0
10
166.865735937
20
113.534621326
10
197.365735937
20
113.534621326
42
0.414213562373
10
200.365735937
20
116.534621326
10
200.365735937
20
130.534621264
42
0.414213562373
10
197.365735937
20
133.534621264
10
166.865735937
20
133.534621264
42
0.414213562373
10
163.865735937
20
130.534621264
10
163.865735937
20
116.534621326
42
0.414213562373
0
LWPOLYLINE
5
E7
100
AcDbEntity
8
outProfile
6
ByLayer
62
256
370
-1
100
AcDbPolyline
90
8
70
1
43
0
10
140.955071718
20
79.6807198075
10
140.955071718
20
91.2474504044
42
0.172760025571
10
139.941990125
20
94.0919890359
10
136.783233431
20
97.964085106
10
134.455071718
20
97.964085106
10
134.455071718
20
72.964085106
10
136.783233431
20
72.964085106
10
139.941990125
20
76.8361811761
42
0.172760025571
0
LWPOLYLINE
5
E8
100
AcDbEntity
8
outProfile
6
ByLayer
62
256
370
-1
100
AcDbPolyline
90
39
70
1
43
0
10
124.495780735
20
55.3024141658
42
0.368228113641
10
122.538136877
20
55.8598165805
42
-0.0177775312225
10
121.992330311
20
55.6337360988
42
0.368228113641
10
121.002210094
20
53.8553298251
10
121.395067468
20
51.8934696773
42
-0.0232304710375
10
121.427992215
20
51.6773475465
42
-0.0031985852304
10
121.430948878
20
51.6473760735
42
-1.09643469471
10
116.742926137
20
51.6473760735
42
-0.0031985852304
10
116.7458828
20
51.6773475465
42
-0.0232304710375
10
116.778807548
20
51.8934696796
10
117.156332279
20
53.7787613119
42
-0.769186255868
10
115.981937508
20
72.7492257812
10
115.981937508
20
92.4198618559
42
-1
10
122.191937508
20
92.4198618559
10
122.191937508
20
71.1285606213
42
-0.0113354079695
10
122.53813688
20
70.9799071346
42
0.368228113641
10
124.495780735
20
71.5373095483
10
125.605233233
20
73.2023462759
42
-0.0232304710375
10
125.734773346
20
73.3784490117
42
-0.0031985852304
10
125.753875701
20
73.4017327203
42
-1.09643469471
10
129.068808372
20
70.0868000495
42
-0.0031985852304
10
129.045524663
20
70.0676976945
42
-0.0232304710375
10
128.869421928
20
69.9381575838
10
127.204385201
20
68.8287050836
42
0.368228113641
10
126.646982783
20
66.8710612254
42
-0.0177775312225
10
126.873063268
20
66.3252546598
42
0.368228113641
10
128.651469542
20
65.3351344428
10
130.85942329
20
65.7638732266
42
-1.09643469471
10
130.85942329
20
61.0758504853
10
128.65146954
20
61.5045892729
42
0.368228113641
10
126.873063265
20
60.5144690529
42
-0.0177775312225
10
126.646982786
20
59.9686624862
42
0.368228113641
10
127.2043852
20
58.0110186319
10
128.869421928
20
56.9015661332
42
-0.0232304710375
10
129.045524663
20
56.7720260204
42
-0.0031985852304
10
129.068808372
20
56.7529236654
42
-1.09643469471
10
125.753875701
20
53.4379909946
42
-0.0031985852304
10
125.734773346
20
53.4612747032
42
-0.0232304710375
10
125.605233233
20
53.637377439
0
LWPOLYLINE
5
E9
100
AcDbEntity
8
outProfile
6
ByLayer
62
256
370
-1
100
AcDbPolyline
90
39
70
1
43
0
10
153.763366352
20
91.8274342475
42
1
10
147.553366352
20
91.8274342475
10
147.553366352
20
76.2573984068
10
146.070531894
20
76.2573984068
42
0.564433924629
10
143.987646955
20
72.8067785901
42
0.0031985852304
10
144.001848142
20
72.7802200258
42
0.0232304710375
10
144.114973
20
72.5931489676
10
145.228697263
20
70.9309665418
42
-0.368228113641
10
144.994512075
20
68.9090307839
42
0.0177775312225
10
144.576769817
20
68.4912885219
42
-0.368228113641
10
142.554834056
20
68.2571033332
10
140.892651629
20
69.3708275975
42
0.0232304710375
10
140.705580572
20
69.4839524566
42
0.0031985852299
10
140.679022008
20
69.4981536436
42
1.09643469471
10
138.884993374
20
65.1669853849
42
0.0031985852304
10
138.913814871
20
65.1582473996
42
0.0232304710375
10
139.126085439
20
65.1059595402
10
141.088947881
20
64.7181410531
42
-0.368228113641
10
142.353078434
20
63.1228226329
42
0.0177775312225
10
142.353078437
20
62.5320458624
42
-0.368228113641
10
141.088947881
20
60.9367274403
10
139.126085437
20
60.5489089528
42
0.0232304710375
10
138.91381487
20
60.4966210951
42
0.0031985852304
10
138.884993373
20
60.4878831097
42
1.09643469471
10
140.679022007
20
56.1567148511
42
0.0031985852304
10
140.705580571
20
56.1709160381
42
0.0232304710375
10
140.892651629
20
56.2840408964
10
142.554834055
20
57.3977651596
42
-0.368228113641
10
144.576769813
20
57.1635799715
42
0.0177775312225
10
144.994512078
20
56.7458377126
42
-0.368228113641
10
145.228697264
20
54.7239019521
10
144.114972999
20
53.0617195258
42
0.0232304710375
10
144.001848143
20
52.8746484675
42
0.0031985852304
10
143.987646956
20
52.8480899032
42
1.09643469471
10
148.318815215
20
51.0540612695
42
0.0031985852304
10
148.3275532
20
51.0828827661
42
0.0232304710375
10
148.379841058
20
51.2951533341
10
148.75252356
20
53.1814081486
42
0.938799447252
10
153.763366352
20
72.1567981728
0
LWPOLYLINE
5
EA
100
AcDbEntity
8
outProfile
6
ByLayer
62
256
370
-1
100
AcDbPolyline
90
22
70
1
43
0
10
157.066697543
20
13.6519136108
10
157.066697543
20
32.2879525801
42
0.19891236738
10
155.748678058
20
35.4699330955
10
141.444601473
20
47.1388320173
42
0.172760025571
10
138.600062842
20
48.1519136108
10
127.033332245
20
48.1519136108
42
0.172760025571
10
124.188793613
20
47.1388320173
10
109.884717028
20
35.4699330955
42
0.19891236738
10
108.566697543
20
32.2879525801
10
108.566697543
20
13.6519136108
42
0.414213562373
10
113.066697543
20
9.15191361079
10
113.066697543
20
13.1519136108
10
119.066697543
20
13.1519136108
10
119.066697543
20
9.15191361079
10
126.816697543
20
9.15191361079
10
126.816697543
20
13.1519136108
10
138.816697543
20
13.1519136108
10
138.816697543
20
9.15191361079
10
146.566697543
20
9.15191361079
10
146.566697543
20
13.1519136108
10
152.566697543
20
13.1519136108
10
152.566697543
20
9.15191361079
42
0.414213562373
0
LWPOLYLINE
5
EB
100
AcDbEntity
8
outProfile
6
ByLayer
62
256
370
-1
100
AcDbPolyline
90
4
70
1
43
0
10
163.3708983
20
29.9828829808
10
192.3708983
20
29.9828829808
42
-1
10
192.3708983
20
23.9828829808
10
163.3708983
20
23.9828829808
42
-1
0
LWPOLYLINE
5
EC
100
AcDbEntity
8
outProfile
6
ByLayer
62
256
370
-1
100
AcDbPolyline
90
4
70
1
43
0
10
163.3708983
20
18.9828829808
10
192.3708983
20
18.9828829808
42
-1
10
192.3708983
20
12.9828829808
10
163.3708983
20
12.9828829808
42
-1
0
LWPOLYLINE
5
ED
100
AcDbEntity
8
outProfile
6
ByLayer
62
256
370
-1
100
AcDbPolyline
90
7
70
1
43
0
10
266.480327371
20
117.716794783
10
244.829692276
20
130.216794783
10
241.579692276
20
124.587629659
10
263.230327371
20
112.087629659
10
262.480327371
20
110.788591553
10
275.82985913
20
95.7275100932
42
0.968449197111
10
280.346350945
20
99.6726750294
0
LWPOLYLINE
5
EE
100
AcDbEntity
8
outProfile
6
ByLayer
62
256
370
-1
100
AcDbPolyline
90
7
70
1
43
0
10
285.530094691
20
166.161112244
10
285.530094691
20
191.161112244
10
279.030094691
20
191.161112244
10
279.030094691
20
166.161112244
10
277.530094691
20
166.161112244
10
271.161581418
20
147.069537882
42
0.968449197111
10
276.836440383
20
145.130723702
0
LWPOLYLINE
5
EF
100
AcDbEntity
8
outProfile
6
ByLayer
62
256
370
-1
100
AcDbPolyline
90
7
70
1
43
0
10
272.5
20
167
10
272.5
20
192
10
266
20
192
10
266
20
167
10
264.5
20
167
10
258.131486727
20
147.908425638
42
0.968449197111
10
263.806345691
20
145.969611458
0
LWPOLYLINE
5
F0
100
AcDbEntity
8
outProfile
6
ByLayer
62
256
370
-1
100
AcDbPolyline
90
7
70
1
43
0
10
260.5
20
168
10
260.5
20
193
10
254
20
193
10
254
20
168
10
252.5
20
168
10
246.131486727
20
148.908425638
42
0.968449197111
10
251.806345691
20
146.969611458
0
LWPOLYLINE
5
F1
100
AcDbEntity
8
outProfile
6
ByLayer
62
256
370
-1
100
AcDbPolyline
90
24
70
1
43
0
10
181.712223954
20
63
42
0.347755862272
10
223.392728403
20
21.3194955517
10
223.392728403
20
19
10
225.892728403
20
14
10
231.892728403
20
14
10
234.392728403
20
19
10
234.392728403
20
21.3194955517
42
0.347755862272
10
276.073232851
20
63
10
278.392728403
20
63
10
283.392728403
20
65.5
10
283.392728403
20
71.5
10
278.392728403
20
74
10
276.073232851
20
74
42
0.347755862272
10
234.392728403
20
115.680504448
10
234.392728403
20
118
10
231.892728403
20
123
10
225.892728403
20
123
10
223.392728403
20
118
10
223.392728403
20
115.680504448
42
0.347755862272
10
181.712223954
20
74
10
179.392728403
20
74
10
174.392728403
20
71.5
10
174.392728403
20
65.5
10
179.392728403
20
63
0
LWPOLYLINE
5
F2
100
AcDbEntity
8
outProfile
6
ByLayer
62
256
370
-1
100
AcDbPolyline
90
4
70
1
43
0
10
23
20
175.116042154
42
1
10
23
20
151.116042154
10
144
20
151.116042154
42
1
10
144
20
175.116042154
0
LWPOLYLINE
5
F3
100
AcDbEntity
8
outProfile
6
ByLayer
62
256
370
-1
100
AcDbPolyline
90
18
70
1
43
0
10
239.522244756
20
178.017665542
10
243.522244756
20
178.017665542
10
243.522244756
20
192.017665542
10
239.522244756
20
192.017665542
10
239.522244756
20
197.017665542
10
216.522244756
20
197.017665542
42
0.414213562373
10
206.522244756
20
187.017665542
10
206.522244756
20
139.017665542
42
0.414213562373
10
216.522244756
20
129.017665542
10
239.522244756
20
129.017665542
10
239.522244756
20
134.017665542
10
243.522244756
20
134.017665542
10
243.522244756
20
148.017665542
10
239.522244756
20
148.017665542
10
239.522244756
20
156.017665542
10
243.522244756
20
156.017665542
10
243.522244756
20
170.017665542
10
239.522244756
20
170.017665542
0
LWPOLYLINE
5
F4
100
AcDbEntity
8
outProfile
6
ByLayer
62
256
370
-1
100
AcDbPolyline
90
4
70
1
43
0
10
23
20
206
42
1
10
23
20
182
10
144
20
182
42
1
10
144
20
206
0
LWPOLYLINE
5
F5
100
AcDbEntity
8
outProfile
6
ByLayer
62
256
370
-1
100
AcDbPolyline
90
4
70
1
43
0
10
216.5
20
263
10
267.5
20
263
10
267.5
20
277
10
216.5
20
277
0
LWPOLYLINE
5
F6
100
AcDbEntity
8
Layer1
6
ByLayer
62
256
370
-1
100
AcDbPolyline
90
4
70
1
43
0
10
0
20
0
10
300
20
0
10
300
20
320
10
0
20
320
0
CIRCLE
5
F7
100
AcDbEntity
8
3mmHole
6
ByLayer
62
256
370
-1
100
AcDbCircle
10
62.8489673006
20
233.11654585
40
1.5
0
CIRCLE
5
F8
100
AcDbEntity
8
3mmHole
6
ByLayer
62
256
370
-1
100
AcDbCircle
10
62.8489673006
20
222.61654585
40
1.5
0
CIRCLE
5
F9
100
AcDbEntity
8
3mmHole
6
ByLayer
62
256
370
-1
100
AcDbCircle
10
13.8489673006
20
233.11654585
40
1.5
0
CIRCLE
5
FA
100
AcDbEntity
8
3mmHole
6
ByLayer
62
256
370
-1
100
AcDbCircle
10
13.8489673006
20
222.61654585
40
1.5
0
CIRCLE
5
FB
100
AcDbEntity
8
3mmHole
6
ByLayer
62
256
370
-1
100
AcDbCircle
10
184.848967301
20
233.11654585
40
1.5
0
CIRCLE
5
FC
100
AcDbEntity
8
3mmHole
6
ByLayer
62
256
370
-1
100
AcDbCircle
10
184.848967301
20
222.61654585
40
1.5
0
CIRCLE
5
FD
100
AcDbEntity
8
3mmHole
6
ByLayer
62
256
370
-1
100
AcDbCircle
10
135.848967301
20
233.11654585
40
1.5
0
CIRCLE
5
FE
100
AcDbEntity
8
3mmHole
6
ByLayer
62
256
370
-1
100
AcDbCircle
10
135.848967301
20
222.61654585
40
1.5
0
CIRCLE
5
FF
100
AcDbEntity
8
3mmHole
6
ByLayer
62
256
370
-1
100
AcDbCircle
10
69.3489673006
20
227.86654585
40
1.5
0
CIRCLE
5
100
100
AcDbEntity
8
3mmHole
6
ByLayer
62
256
370
-1
100
AcDbCircle
10
129.348967301
20
227.86654585
40
1.5
0
CIRCLE
5
101
100
AcDbEntity
8
3mmHole
6
ByLayer
62
256
370
-1
100
AcDbCircle
10
184.848967301
20
217.61654585
40
1.5
0
CIRCLE
5
102
100
AcDbEntity
8
3mmHole
6
ByLayer
62
256
370
-1
100
AcDbCircle
10
64.3342476842
20
270.414971424
40
1.5
0
CIRCLE
5
103
100
AcDbEntity
8
3mmHole
6
ByLayer
62
256
370
-1
100
AcDbCircle
10
70
20
270
40
1.5
0
CIRCLE
5
104
100
AcDbEntity
8
3mmHole
6
ByLayer
62
256
370
-1
100
AcDbCircle
10
15.3342476842
20
270.414971424
40
1.5
0
CIRCLE
5
105
100
AcDbEntity
8
3mmHole
6
ByLayer
62
256
370
-1
100
AcDbCircle
10
15.3342476842
20
259.914971424
40
1.5
0
CIRCLE
5
106
100
AcDbEntity
8
3mmHole
6
ByLayer
62
256
370
-1
100
AcDbCircle
10
186.334247684
20
270.414971424
40
1.5
0
CIRCLE
5
107
100
AcDbEntity
8
3mmHole
6
ByLayer
62
256
370
-1
100
AcDbCircle
10
186.334247684
20
259.914971424
40
1.5
0
CIRCLE
5
108
100
AcDbEntity
8
3mmHole
6
ByLayer
62
256
370
-1
100
AcDbCircle
10
137.334247684
20
270.414971424
40
1.5
0
CIRCLE
5
109
100
AcDbEntity
8
3mmHole
6
ByLayer
62
256
370
-1
100
AcDbCircle
10
137.334247684
20
259.914971424
40
1.5
0
CIRCLE
5
10A
100
AcDbEntity
8
3mmHole
6
ByLayer
62
256
370
-1
100
AcDbCircle
10
70.8342476842
20
265.164971424
40
1.5
0
CIRCLE
5
10B
100
AcDbEntity
8
3mmHole
6
ByLayer
62
256
370
-1
100
AcDbCircle
10
130.834247684
20
265.164971424
40
1.5
0
CIRCLE
5
10C
100
AcDbEntity
8
3mmHole
6
ByLayer
62
256
370
-1
100
AcDbCircle
10
186.334247684
20
254.914971424
40
1.5
0
CIRCLE
5
10D
100
AcDbEntity
8
3mmHole
6
ByLayer
62
256
370
-1
100
AcDbCircle
10
114.3708983
20
246.982882981
40
1.5
0
CIRCLE
5
10E
100
AcDbEntity
8
3mmHole
6
ByLayer
62
256
370
-1
100
AcDbCircle
10
85.3708982999
20
246.982882981
40
1.5
0
CIRCLE
5
10F
100
AcDbEntity
8
3mmHole
6
ByLayer
62
256
370
-1
100
AcDbCircle
10
115.3708983
20
284.982882981
40
1.5
0
CIRCLE
5
110
100
AcDbEntity
8
3mmHole
6
ByLayer
62
256
370
-1
100
AcDbCircle
10
86.3708982999
20
284.982882981
40
1.5
0
LWPOLYLINE
5
111
100
AcDbEntity
8
InProfile
6
ByLayer
62
256
370
-1
100
AcDbPolyline
90
12
70
1
43
0
10
19.3342476842
20
254.914971424
10
19.3342476842
20
263.914971424
10
15.8342476842
20
263.914971424
10
15.8342476842
20
266.414971424
10
19.3342476842
20
266.414971424
10
19.3342476842
20
275.414971424
10
60.3342476842
20
275.414971424
10
60.3342476842
20
266.414971424
10
63.8342476842
20
266.414971424
10
63.8342476842
20
263.914971424
10
60.3342476842
20
263.914971424
10
60.3342476842
20
254.914971424
0
LWPOLYLINE
5
112
100
AcDbEntity
8
InProfile
6
ByLayer
62
256
370
-1
100
AcDbPolyline
90
12
70
1
43
0
10
141.334247684
20
254.914971424
10
141.334247684
20
263.914971424
10
137.834247684
20
263.914971424
10
137.834247684
20
266.414971424
10
141.334247684
20
266.414971424
10
141.334247684
20
275.414971424
10
182.334247684
20
275.414971424
10
182.334247684
20
266.414971424
10
185.834247684
20
266.414971424
10
185.834247684
20
263.914971424
10
182.334247684
20
263.914971424
10
182.334247684
20
254.914971424
0
LWPOLYLINE
5
113
100
AcDbEntity
8
InProfile
6
ByLayer
62
256
370
-1
100
AcDbPolyline
90
12
70
1
43
0
10
17.8489673006
20
217.61654585
10
17.8489673006
20
226.61654585
10
14.3489673006
20
226.61654585
10
14.3489673006
20
229.11654585
10
17.8489673006
20
229.11654585
10
17.8489673006
20
238.11654585
10
58.8489673006
20
238.11654585
10
58.8489673006
20
229.11654585
10
62.3489673006
20
229.11654585
10
62.3489673006
20
226.61654585
10
58.8489673006
20
226.61654585
10
58.8489673006
20
217.61654585
0
LWPOLYLINE
5
114
100
AcDbEntity
8
InProfile
6
ByLayer
62
256
370
-1
100
AcDbPolyline
90
12
70
1
43
0
10
139.848967301
20
217.61654585
10
139.848967301
20
226.61654585
10
136.348967301
20
226.61654585
10
136.348967301
20
229.11654585
10
139.848967301
20
229.11654585
10
139.848967301
20
238.11654585
10
180.848967301
20
238.11654585
10
180.848967301
20
229.11654585
10
184.348967301
20
229.11654585
10
184.348967301
20
226.61654585
10
180.848967301
20
226.61654585
10
180.848967301
20
217.61654585
0
LWPOLYLINE
5
115
100
AcDbEntity
8
outProfile
6
ByLayer
62
256
370
-1
100
AcDbPolyline
90
4
70
1
43
0
10
86.3708982999
20
287.982882981
10
115.3708983
20
287.982882981
42
-1
10
115.3708983
20
281.982882981
10
86.3708982999
20
281.982882981
42
-1
0
LWPOLYLINE
5
116
100
AcDbEntity
8
outProfile
6
ByLayer
62
256
370
-1
100
AcDbPolyline
90
4
70
1
43
0
10
85.3708982999
20
249.982882981
10
114.3708983
20
249.982882981
42
-1
10
114.3708983
20
243.982882981
10
85.3708982999
20
243.982882981
42
-1
0
LWPOLYLINE
5
117
100
AcDbEntity
8
outProfile
6
ByLayer
62
256
370
-1
100
AcDbPolyline
90
20
70
1
43
0
10
9.34896730056
20
215.86654585
42
0.414213562373
10
11.3489673006
20
213.86654585
10
65.3489673006
20
213.86654585
42
0.414213562373
10
67.3489673006
20
215.86654585
42
-0.414213562373
10
69.3489673006
20
217.86654585
10
129.348967301
20
217.86654585
42
-0.414213562373
10
131.348967301
20
215.86654585
42
0.414213562373
10
133.348967301
20
213.86654585
10
187.348967301
20
213.86654585
42
0.414213562373
10
189.348967301
20
215.86654585
10
189.348967301
20
239.86654585
42
0.414213562373
10
187.348967301
20
241.86654585
10
133.348967301
20
241.86654585
42
0.414213562373
10
131.348967301
20
239.86654585
42
-0.414213562373
10
129.348967301
20
237.86654585
10
69.3489673006
20
237.86654585
42
-0.414213562373
10
67.3489673006
20
239.86654585
42
0.414213562373
10
65.3489673006
20
241.86654585
10
11.3489673006
20
241.86654585
42
0.414213562373
10
9.34896730056
20
239.86654585
0
LWPOLYLINE
5
118
100
AcDbEntity
8
outProfile
6
ByLayer
62
256
370
-1
100
AcDbPolyline
90
20
70
1
43
0
10
10.8342476842
20
253.164971424
42
0.414213562373
10
12.8342476842
20
251.164971424
10
66.8342476842
20
251.164971424
42
0.414213562373
10
68.8342476842
20
253.164971424
42
-0.414213562373
10
70.8342476842
20
255.164971424
10
130.834247684
20
255.164971424
42
-0.414213562373
10
132.834247684
20
253.164971424
42
0.414213562373
10
134.834247684
20
251.164971424
10
188.834247684
20
251.164971424
42
0.414213562373
10
190.834247684
20
253.164971424
10
190.834247684
20
277.164971424
42
0.414213562373
10
188.834247684
20
279.164971424
10
134.834247684
20
279.164971424
42
0.414213562373
10
132.834247684
20
277.164971424
42
-0.414213562373
10
130.834247684
20
275.164971424
10
70.8342476842
20
275.164971424
42
-0.414213562373
10
68.8342476842
20
277.164971424
42
0.414213562373
10
66.8342476842
20
279.164971424
10
12.8342476842
20
279.164971424
42
0.414213562373
10
10.8342476842
20
277.164971424
0
ENDSEC
0
SECTION
2
OBJECTS
0
DICTIONARY
5
C
330
0
100
AcDbDictionary
281
1
3
ACAD_GROUP
350
D
0
DICTIONARY
5
D
330
C
100
AcDbDictionary
281
1
0
ENDSEC
0
EOF
